<?xml version="1.0" encoding="utf-8"?>
<!-- Generator: Adobe Illustrator 24.0.3, SVG Export Plug-In . SVG Version: 6.00 Build 0)  -->
<svg version="1.1" id="Layer_1" xmlns="http://www.w3.org/2000/svg" xmlns:xlink="http://www.w3.org/1999/xlink" x="0px" y="0px"
	 viewBox="0 0 595.3 841.9" style="enable-background:new 0 0 595.3 841.9;" xml:space="preserve">
<style type="text/css">
	.st0{font-family:'TimesNewRomanPS-BoldMT';}
	.st1{font-size:22px;}
	.st2{font-size:20px;}
	.st3{opacity:0.7;fill:#F2F2F2;}
	.st4{fill:none;stroke:#39B54A;stroke-miterlimit:10;}
	.st5{fill:#39B54A;}
	.st6{fill:#152EE7;stroke:#000000;stroke-miterlimit:10;}
	.st7{fill:#FFFFFF;}
	.st8{font-family:'TimesNewRomanPSMT';}
	.st9{font-size:18px;}
	.st10{fill:none;stroke:#FF0000;stroke-miterlimit:10;}
	.st11{fill:#FF0000;}
	.st12{fill:#F1012A;stroke:#000000;stroke-miterlimit:10;}
	.st13{fill:#FFFFFF;stroke:#000000;stroke-width:0.363;stroke-miterlimit:10;}
	.st14{fill:#FFFFFF;stroke:#000000;stroke-width:0.5;stroke-miterlimit:10;}
	.st15{opacity:0.3;fill:#D9E021;}
	.st16{fill:none;stroke:#B3B3B3;stroke-miterlimit:10;stroke-dasharray:2,2;}
	.st17{fill:#B3B3B3;}
	.st18{fill:#33958C;}
	.st19{font-size:19px;}
	.st20{opacity:0.3;fill:#33958C;}
</style>
<text transform="matrix(1 0 0 1 50.271 30.5626)" class="st0 st1">Naive network generation + CARNIVAL optimization</text>
<g>
	<g>
		<text transform="matrix(1 0 0 1 48.891 69.1257)" class="st0 st2">One-layer</text>
		<g>
			<path class="st3" d="M166.06,201.64H17.29c-3.65,0-6.61-2.96-6.61-6.61V83.96c0-3.65,2.96-6.61,6.61-6.61h148.77
				c3.65,0,6.61,2.96,6.61,6.61v111.07C172.67,198.68,169.71,201.64,166.06,201.64z"/>
			<g>
				<g>
					<line class="st4" x1="109.42" y1="142.91" x2="109.42" y2="148.26"/>
					<g>
						<circle class="st5" cx="109.42" cy="148.18" r="1.5"/>
					</g>
				</g>
			</g>
			<g>
				<circle class="st6" cx="147.19" cy="182.16" r="15"/>
				<g>
					<text transform="matrix(1.0482 0 0 1 141.5946 186.8835)" class="st7 st8 st9">T</text>
				</g>
			</g>
			<g>
				<circle class="st6" cx="36.17" cy="182.16" r="15"/>
				<text transform="matrix(1.0482 0 0 1 29.2709 186.883)" class="st7 st8 st9">K</text>
			</g>
			<g>
				<g>
					<line class="st4" x1="77.07" y1="109.44" x2="43.94" y2="118.74"/>
					<g>
						<path class="st5" d="M43.61,117.27c-0.8,0.22-1.27,1.05-1.04,1.85c0.22,0.8,1.05,1.27,1.85,1.04c0.8-0.22,1.27-1.05,1.04-1.85
							C45.24,117.51,44.41,117.05,43.61,117.27z"/>
					</g>
				</g>
			</g>
			<g>
				<g>
					<line class="st4" x1="103.36" y1="109.87" x2="138.23" y2="119.31"/>
					<g>
						<path class="st5" d="M137.76,120.74c0.8,0.22,1.63-0.26,1.84-1.06c0.22-0.8-0.26-1.63-1.06-1.84
							c-0.8-0.22-1.63,0.26-1.84,1.06C136.49,119.7,136.96,120.53,137.76,120.74z"/>
					</g>
				</g>
			</g>
			<g>
				<g>
					<line class="st4" x1="83.24" y1="113.05" x2="74.11" y2="118.8"/>
					<g>
						<path class="st5" d="M73.37,117.49c-0.7,0.44-0.91,1.37-0.47,2.07c0.44,0.7,1.37,0.91,2.07,0.47c0.7-0.44,0.91-1.37,0.47-2.07
							C75,117.26,74.08,117.04,73.37,117.49z"/>
					</g>
				</g>
			</g>
			<g>
				<g>
					<line class="st4" x1="95.39" y1="112.77" x2="104.81" y2="119.32"/>
					<g>
						<path class="st5" d="M103.89,120.51c0.68,0.47,1.62,0.31,2.09-0.38c0.47-0.68,0.31-1.62-0.38-2.09
							c-0.68-0.47-1.62-0.31-2.09,0.38C103.04,119.1,103.21,120.04,103.89,120.51z"/>
					</g>
				</g>
			</g>
			<g>
				<g>
					<line class="st10" x1="38.17" y1="142.71" x2="38.17" y2="165.32"/>
					<g>
						<rect x="35.57" y="164.92" class="st11" width="5.2" height="0.8"/>
					</g>
				</g>
			</g>
			<g>
				<g>
					<line class="st4" x1="114.66" y1="126.03" x2="140.54" y2="136.51"/>
					<g>
						<path class="st5" d="M139.91,137.87c0.77,0.31,1.65-0.06,1.96-0.83c0.31-0.77-0.06-1.65-0.83-1.96
							c-0.77-0.31-1.65,0.06-1.96,0.83C138.77,136.68,139.14,137.56,139.91,137.87z"/>
					</g>
				</g>
			</g>
			<g>
				<circle class="st12" cx="110.18" cy="182.16" r="15"/>
				<text transform="matrix(1.0482 0 0 1 100.0175 186.883)" class="st8 st9">PP</text>
			</g>
			<g>
				<circle class="st12" cx="73.17" cy="182.16" r="15"/>
				<text transform="matrix(1.0482 0 0 1 66.3603 186.8835)" class="st8 st9">O</text>
			</g>
			<circle class="st13" cx="71.47" cy="124.13" r="3.68"/>
			<g>
				<g>
					<line class="st4" x1="70.69" y1="129.47" x2="70.69" y2="164.29"/>
					<g>
						<path class="st5" d="M69.18,164.22c0,0.83,0.67,1.5,1.5,1.5s1.5-0.67,1.5-1.5c0-0.83-0.67-1.5-1.5-1.5
							S69.18,163.39,69.18,164.22z"/>
					</g>
				</g>
			</g>
			<polygon class="st12" points="71.34,80.33 89.41,92.37 107.46,80.33 89.41,116.45 			"/>
			<circle class="st13" cx="38.22" cy="123.08" r="3.68"/>
			<circle class="st13" cx="38.22" cy="139.23" r="3.68"/>
			<g>
				<g>
					<line class="st4" x1="38.22" y1="126.77" x2="38.22" y2="132.12"/>
					<g>
						<path class="st5" d="M36.71,132.04c0,0.83,0.67,1.5,1.5,1.5c0.83,0,1.5-0.67,1.5-1.5c0-0.83-0.67-1.5-1.5-1.5
							C37.39,130.54,36.71,131.21,36.71,132.04z"/>
					</g>
				</g>
			</g>
			<circle class="st13" cx="109.42" cy="123.39" r="3.68"/>
			<circle class="st14" cx="109.42" cy="139.54" r="3.68"/>
			<g>
				<g>
					<line class="st10" x1="109.42" y1="127.08" x2="109.42" y2="133.46"/>
					<g>
						<rect x="106.82" y="133.06" class="st11" width="5.2" height="0.8"/>
					</g>
				</g>
			</g>
			<circle class="st14" cx="109.42" cy="155.37" r="3.68"/>
			<g>
				<g>
					<line class="st10" x1="109.42" y1="158.94" x2="109.42" y2="165.32"/>
					<g>
						<rect x="106.82" y="164.92" class="st11" width="5.2" height="0.8"/>
					</g>
				</g>
			</g>
			<circle class="st13" cx="146.73" cy="123.39" r="3.68"/>
			<circle class="st13" cx="147.19" cy="139.54" r="3.68"/>
			<g>
				<g>
					<line class="st4" x1="146.73" y1="127.08" x2="146.73" y2="132.43"/>
					<g>
						<path class="st5" d="M145.23,132.35c0,0.83,0.67,1.5,1.5,1.5c0.83,0,1.5-0.67,1.5-1.5c0-0.83-0.67-1.5-1.5-1.5
							C145.9,130.85,145.23,131.52,145.23,132.35z"/>
					</g>
				</g>
			</g>
			<g>
				<g>
					<line class="st10" x1="146.73" y1="143.22" x2="146.73" y2="164.86"/>
					<g>
						<rect x="144.13" y="164.46" class="st11" width="5.2" height="0.8"/>
					</g>
				</g>
			</g>
		</g>
	</g>
	<text transform="matrix(1 0 0 1 223.7958 69.1257)" class="st0 st2">Two-layers</text>
	<path class="st3" d="M345.95,199.29H197.18c-3.65,0-6.61-2.96-6.61-6.61V81.62c0-3.65,2.96-6.61,6.61-6.61h148.77
		c3.65,0,6.61,2.96,6.61,6.61v111.07C352.55,196.34,349.6,199.29,345.95,199.29z"/>
	<path class="st15" d="M345.95,285.39H198.13c-3.65,0-6.61-2.96-6.61-6.61V164.77c0-3.65,2.96-6.61,6.61-6.61h147.82
		c3.65,0,6.61,2.96,6.61,6.61v114.02C352.55,282.44,349.6,285.39,345.95,285.39z"/>
	<g>
		<circle class="st6" cx="326.33" cy="179.78" r="15"/>
		<g>
			<text transform="matrix(1.0482 0 0 1 319.7357 184.4968)" class="st7 st8 st9">O</text>
		</g>
	</g>
	<circle class="st6" cx="217.31" cy="179.78" r="15"/>
	<text transform="matrix(1.0482 0 0 1 210.412 184.4968)" class="st7 st8 st9">K</text>
	<g>
		<g>
			<line class="st4" x1="256.21" y1="107.05" x2="223.08" y2="116.35"/>
			<g>
				<path class="st5" d="M222.75,114.89c-0.8,0.22-1.27,1.05-1.04,1.85c0.22,0.8,1.05,1.27,1.85,1.04c0.8-0.22,1.27-1.05,1.04-1.85
					C224.38,115.13,223.55,114.66,222.75,114.89z"/>
			</g>
		</g>
	</g>
	<g>
		<g>
			<line class="st4" x1="282.5" y1="107.49" x2="317.37" y2="116.93"/>
			<g>
				<path class="st5" d="M316.9,118.36c0.8,0.22,1.63-0.26,1.84-1.06c0.22-0.8-0.26-1.63-1.06-1.84s-1.63,0.26-1.84,1.06
					C315.63,117.31,316.1,118.14,316.9,118.36z"/>
			</g>
		</g>
	</g>
	<g>
		<g>
			<line class="st4" x1="262.38" y1="110.67" x2="253.25" y2="116.41"/>
			<g>
				<path class="st5" d="M252.51,115.1c-0.7,0.44-0.91,1.37-0.47,2.07c0.44,0.7,1.37,0.91,2.07,0.47c0.7-0.44,0.91-1.37,0.47-2.07
					C254.15,114.87,253.22,114.66,252.51,115.1z"/>
			</g>
		</g>
	</g>
	<g>
		<g>
			<line class="st4" x1="274.53" y1="110.38" x2="283.95" y2="116.94"/>
			<g>
				<path class="st5" d="M283.03,118.13c0.68,0.47,1.62,0.31,2.09-0.38c0.47-0.68,0.31-1.62-0.38-2.09
					c-0.68-0.47-1.62-0.31-2.09,0.38S282.35,117.65,283.03,118.13z"/>
			</g>
		</g>
	</g>
	<g>
		<g>
			<line class="st10" x1="217.31" y1="140.32" x2="217.31" y2="162.93"/>
			<g>
				<rect x="214.71" y="162.53" class="st11" width="5.2" height="0.8"/>
			</g>
		</g>
	</g>
	<g>
		<g>
			<line class="st4" x1="293.8" y1="123.65" x2="319.69" y2="134.12"/>
			<g>
				<path class="st5" d="M319.05,135.49c0.77,0.31,1.65-0.06,1.96-0.83c0.31-0.77-0.06-1.65-0.83-1.96
					c-0.77-0.31-1.65,0.06-1.96,0.83C317.91,134.3,318.28,135.17,319.05,135.49z"/>
			</g>
		</g>
	</g>
	<g>
		<circle class="st12" cx="289.32" cy="179.78" r="15"/>
		<text transform="matrix(1.0482 0 0 1 279.1586 184.4963)" class="st8 st9">PP</text>
	</g>
	<circle class="st12" cx="253.22" cy="179.78" r="15"/>
	<text transform="matrix(1.0482 0 0 1 246.4081 184.4973)" class="st8 st9">O</text>
	<circle class="st13" cx="253.22" cy="121.74" r="3.68"/>
	<g>
		<g>
			<line class="st4" x1="253.22" y1="127.08" x2="253.22" y2="161.91"/>
			<g>
				<path class="st5" d="M251.72,161.83c0,0.83,0.67,1.5,1.5,1.5c0.83,0,1.5-0.67,1.5-1.5c0-0.83-0.67-1.5-1.5-1.5
					C252.39,160.33,251.72,161,251.72,161.83z"/>
			</g>
		</g>
	</g>
	<polygon class="st12" points="250.48,77.95 268.55,89.99 286.6,77.95 268.55,114.07 	"/>
	<circle class="st13" cx="217.36" cy="120.7" r="3.68"/>
	<circle class="st13" cx="217.36" cy="136.84" r="3.68"/>
	<g>
		<g>
			<line class="st4" x1="217.36" y1="124.38" x2="217.36" y2="129.73"/>
			<g>
				<path class="st5" d="M215.85,129.66c0,0.83,0.67,1.5,1.5,1.5c0.83,0,1.5-0.67,1.5-1.5c0-0.83-0.67-1.5-1.5-1.5
					C216.53,128.15,215.85,128.83,215.85,129.66z"/>
			</g>
		</g>
	</g>
	<circle class="st13" cx="288.56" cy="121.01" r="3.68"/>
	<circle class="st14" cx="288.56" cy="137.15" r="3.68"/>
	<g>
		<g>
			<line class="st10" x1="288.56" y1="124.69" x2="288.56" y2="131.07"/>
			<g>
				<rect x="285.96" y="130.67" class="st11" width="5.2" height="0.8"/>
			</g>
		</g>
	</g>
	<circle class="st14" cx="288.56" cy="152.98" r="3.68"/>
	<g>
		<g>
			<line class="st4" x1="288.56" y1="140.52" x2="288.56" y2="145.87"/>
			<g>
				<path class="st5" d="M287.06,145.79c0,0.83,0.67,1.5,1.5,1.5s1.5-0.67,1.5-1.5c0-0.83-0.67-1.5-1.5-1.5
					S287.06,144.96,287.06,145.79z"/>
			</g>
		</g>
	</g>
	<g>
		<g>
			<line class="st10" x1="288.56" y1="156.55" x2="288.56" y2="162.93"/>
			<g>
				<rect x="285.96" y="162.53" class="st11" width="5.2" height="0.8"/>
			</g>
		</g>
	</g>
	<circle class="st13" cx="325.88" cy="121.01" r="3.68"/>
	<circle class="st13" cx="326.33" cy="137.15" r="3.68"/>
	<g>
		<g>
			<line class="st4" x1="325.88" y1="124.69" x2="325.88" y2="130.04"/>
			<g>
				<path class="st5" d="M324.37,129.97c0,0.83,0.67,1.5,1.5,1.5c0.83,0,1.5-0.67,1.5-1.5c0-0.83-0.67-1.5-1.5-1.5
					C325.05,128.46,324.37,129.14,324.37,129.97z"/>
			</g>
		</g>
	</g>
	<g>
		<g>
			<line class="st10" x1="325.88" y1="140.84" x2="325.88" y2="162.47"/>
			<g>
				<rect x="323.28" y="162.07" class="st11" width="5.2" height="0.8"/>
			</g>
		</g>
	</g>
	<circle class="st6" cx="235.22" cy="267.79" r="15"/>
	<g>
		<text transform="matrix(1.0482 0 0 1 229.6293 272.5046)" class="st7 st8 st9">T</text>
	</g>
	<g>
		<g>
			<line class="st4" x1="248.17" y1="195.06" x2="240.38" y2="200.72"/>
			<g>
				<path class="st5" d="M239.55,199.46c-0.67,0.49-0.82,1.43-0.33,2.1c0.49,0.67,1.43,0.82,2.1,0.33c0.67-0.49,0.82-1.43,0.33-2.1
					C241.17,199.12,240.23,198.97,239.55,199.46z"/>
			</g>
		</g>
	</g>
	<circle class="st14" cx="271.32" cy="206.9" r="3.68"/>
	<circle class="st13" cx="271.32" cy="222.82" r="3.68"/>
	<g>
		<g>
			<line class="st10" x1="271.32" y1="210.58" x2="271.32" y2="216.96"/>
			<g>
				<rect x="268.72" y="216.56" class="st11" width="5.2" height="0.8"/>
			</g>
		</g>
	</g>
	<circle class="st13" cx="271.32" cy="238.55" r="3.68"/>
	<g>
		<g>
			<line class="st4" x1="271.32" y1="226.4" x2="271.32" y2="231.75"/>
			<g>
				<path class="st5" d="M269.82,231.68c0,0.83,0.67,1.5,1.5,1.5s1.5-0.67,1.5-1.5c0-0.83-0.67-1.5-1.5-1.5
					S269.82,230.85,269.82,231.68z"/>
			</g>
		</g>
	</g>
	<g>
		<circle class="st12" cx="271.32" cy="267.79" r="15"/>
		<g>
			<text transform="matrix(1.0482 0 0 1 265.7284 272.5046)" class="st8 st9">T</text>
		</g>
	</g>
	<circle class="st14" cx="308.33" cy="206.9" r="3.68"/>
	<circle class="st14" cx="308.33" cy="222.82" r="3.68"/>
	<g>
		<g>
			<line class="st4" x1="308.33" y1="210.58" x2="308.33" y2="215.93"/>
			<g>
				<path class="st5" d="M306.82,215.86c0,0.83,0.67,1.5,1.5,1.5c0.83,0,1.5-0.67,1.5-1.5c0-0.83-0.67-1.5-1.5-1.5
					C307.5,214.35,306.82,215.03,306.82,215.86z"/>
			</g>
		</g>
	</g>
	<g>
		<g>
			<line class="st4" x1="308.33" y1="226.51" x2="308.33" y2="249.08"/>
			<g>
				<path class="st5" d="M306.82,249.01c0,0.83,0.67,1.5,1.5,1.5c0.83,0,1.5-0.67,1.5-1.5c0-0.83-0.67-1.5-1.5-1.5
					C307.5,247.5,306.82,248.18,306.82,249.01z"/>
			</g>
		</g>
	</g>
	<g>
		<circle class="st6" cx="308.33" cy="267.79" r="15"/>
		<g>
			<text transform="matrix(1.0482 0 0 1 302.7357 272.5046)" class="st7 st8 st9">T</text>
		</g>
	</g>
	<g>
		<g>
			<line class="st4" x1="271.32" y1="242.23" x2="271.32" y2="249.08"/>
			<g>
				<path class="st5" d="M269.82,249.01c0,0.83,0.67,1.5,1.5,1.5s1.5-0.67,1.5-1.5c0-0.83-0.67-1.5-1.5-1.5
					S269.82,248.18,269.82,249.01z"/>
			</g>
		</g>
	</g>
	<g>
		<g>
			<line class="st16" x1="258.12" y1="195.1" x2="266.19" y2="200.58"/>
			<g>
				<polygon class="st17" points="264.58,201.9 268.56,202.19 266.83,198.6 				"/>
			</g>
		</g>
	</g>
	<g>
		<g>
			<line class="st10" x1="294.24" y1="195.37" x2="304.27" y2="202.21"/>
			<g>
				
					<rect x="301.67" y="201.81" transform="matrix(0.5636 -0.826 0.826 0.5636 -34.2554 339.5726)" class="st11" width="5.2" height="0.8"/>
			</g>
		</g>
	</g>
	<g>
		<g>
			<line class="st16" x1="284.15" y1="194.81" x2="276.09" y2="200.29"/>
			<g>
				<polygon class="st17" points="275.45,198.31 273.71,201.9 277.69,201.61 				"/>
			</g>
		</g>
	</g>
	<g>
		<g>
			<line class="st4" x1="320.74" y1="195.35" x2="311.48" y2="201.64"/>
			<g>
				<path class="st5" d="M310.7,200.36c-0.69,0.47-0.87,1.4-0.4,2.09c0.47,0.69,1.4,0.87,2.09,0.4c0.69-0.47,0.87-1.4,0.4-2.09
					C312.32,200.07,311.38,199.89,310.7,200.36z"/>
			</g>
		</g>
	</g>
	<circle class="st13" cx="233.75" cy="206.42" r="3.68"/>
	<circle class="st14" cx="233.75" cy="222.35" r="3.68"/>
	<g>
		<g>
			<line class="st10" x1="233.46" y1="210.11" x2="233.46" y2="216.49"/>
			<g>
				<rect x="230.86" y="216.09" class="st11" width="5.2" height="0.8"/>
			</g>
		</g>
	</g>
	<g>
		<g>
			<line class="st10" x1="233.75" y1="225.93" x2="233.75" y2="248.54"/>
			<g>
				<rect x="231.15" y="248.14" class="st11" width="5.2" height="0.8"/>
			</g>
		</g>
	</g>
	<g>
		<g>
			<line class="st16" x1="219.95" y1="195.37" x2="229.98" y2="202.21"/>
			<g>
				
					<rect x="227.38" y="201.81" transform="matrix(0.5636 -0.826 0.826 0.5636 -66.6728 278.2089)" class="st17" width="5.2" height="0.8"/>
			</g>
		</g>
	</g>
	<text transform="matrix(1 0 0 1 534.0121 118.7888)"><tspan x="0" y="0" class="st18 st0 st19">First</tspan><tspan x="0" y="22" class="st18 st0 st19">layer</tspan></text>
	<text transform="matrix(1 0 0 1 534.0121 194.1052)"><tspan x="0" y="0" class="st18 st0 st19">Second</tspan><tspan x="0" y="22" class="st18 st0 st19">layer</tspan></text>
	<text transform="matrix(1 0 0 1 397.0277 69.1257)" class="st0 st2">Three-layers</text>
	<path class="st20" d="M525.84,334.24H377.85c-3.65,0-6.61-2.96-6.61-6.61V213.03c0-3.65,2.96-6.61,6.61-6.61h147.99
		c3.65,0,6.61,2.96,6.61,6.61v114.61C532.44,331.28,529.48,334.24,525.84,334.24z"/>
	<path class="st3" d="M525.84,197.53H377.07c-3.65,0-6.61-2.96-6.61-6.61V79.86c0-3.65,2.96-6.61,6.61-6.61h148.77
		c3.65,0,6.61,2.96,6.61,6.61v111.07C532.44,194.58,529.48,197.53,525.84,197.53z"/>
	<path class="st15" d="M525.84,240.2H378.01c-3.65,0-6.61-2.96-6.61-6.61v-70.59c0-3.65,2.96-6.61,6.61-6.61h147.82
		c3.65,0,6.61,2.96,6.61,6.61v70.59C532.44,237.25,529.48,240.2,525.84,240.2z"/>
	<g>
		<circle class="st6" cx="506.22" cy="178.02" r="15"/>
		<g>
			<text transform="matrix(1.0482 0 0 1 498.6234 182.737)" class="st7 st8 st9">K</text>
		</g>
	</g>
	<circle class="st6" cx="397.2" cy="178.02" r="15"/>
	<text transform="matrix(1.0482 0 0 1 390.2992 182.737)" class="st7 st8 st9">K</text>
	<g>
		<g>
			<line class="st4" x1="436.1" y1="105.29" x2="402.97" y2="114.59"/>
			<g>
				<path class="st5" d="M402.64,113.13c-0.8,0.22-1.27,1.05-1.04,1.85c0.22,0.8,1.05,1.27,1.85,1.04s1.27-1.05,1.04-1.85
					S403.44,112.9,402.64,113.13z"/>
			</g>
		</g>
	</g>
	<g>
		<g>
			<line class="st4" x1="462.38" y1="105.73" x2="497.26" y2="115.17"/>
			<g>
				<path class="st5" d="M496.79,116.6c0.8,0.22,1.63-0.26,1.84-1.06c0.22-0.8-0.26-1.63-1.06-1.84s-1.63,0.26-1.84,1.06
					C495.51,115.55,495.99,116.38,496.79,116.6z"/>
			</g>
		</g>
	</g>
	<g>
		<g>
			<line class="st4" x1="442.27" y1="108.91" x2="433.14" y2="114.65"/>
			<g>
				<path class="st5" d="M432.4,113.34c-0.7,0.44-0.91,1.37-0.47,2.07s1.37,0.91,2.07,0.47c0.7-0.44,0.91-1.37,0.47-2.07
					C434.03,113.11,433.1,112.9,432.4,113.34z"/>
			</g>
		</g>
	</g>
	<g>
		<g>
			<line class="st4" x1="454.42" y1="108.62" x2="463.84" y2="115.18"/>
			<g>
				<circle class="st5" cx="463.78" cy="115.13" r="1.5"/>
			</g>
		</g>
	</g>
	<g>
		<g>
			<line class="st10" x1="397.2" y1="138.56" x2="397.2" y2="161.17"/>
			<g>
				<rect x="394.6" y="160.77" class="st11" width="5.2" height="0.8"/>
			</g>
		</g>
	</g>
	<g>
		<g>
			<line class="st4" x1="473.69" y1="121.89" x2="499.57" y2="132.36"/>
			<g>
				<path class="st5" d="M498.94,133.73c0.77,0.31,1.65-0.06,1.96-0.83s-0.06-1.65-0.83-1.96c-0.77-0.31-1.65,0.06-1.96,0.83
					C497.8,132.54,498.17,133.41,498.94,133.73z"/>
			</g>
		</g>
	</g>
	<g>
		<circle class="st12" cx="469.21" cy="178.02" r="15"/>
		<text transform="matrix(1.0482 0 0 1 459.0463 182.7366)" class="st8 st9">PP</text>
	</g>
	<g>
		<circle class="st12" cx="433.11" cy="178.02" r="15"/>
		<text transform="matrix(1.0482 0 0 1 426.2953 182.7375)" class="st8 st9">K</text>
	</g>
	<circle class="st13" cx="433.11" cy="119.99" r="3.68"/>
	<g>
		<g>
			<line class="st4" x1="433.11" y1="125.32" x2="433.11" y2="160.15"/>
			<g>
				<path class="st5" d="M431.6,160.07c0,0.83,0.67,1.5,1.5,1.5s1.5-0.67,1.5-1.5c0-0.83-0.67-1.5-1.5-1.5
					S431.6,159.24,431.6,160.07z"/>
			</g>
		</g>
	</g>
	<polygon class="st12" points="430.37,76.19 448.44,88.23 466.49,76.19 448.44,112.31 	"/>
	<circle class="st13" cx="397.24" cy="118.94" r="3.68"/>
	<circle class="st13" cx="397.24" cy="135.08" r="3.68"/>
	<g>
		<g>
			<line class="st4" x1="397.24" y1="122.62" x2="397.24" y2="127.97"/>
			<g>
				<path class="st5" d="M395.74,127.9c0,0.83,0.67,1.5,1.5,1.5c0.83,0,1.5-0.67,1.5-1.5c0-0.83-0.67-1.5-1.5-1.5
					C396.41,126.39,395.74,127.07,395.74,127.9z"/>
			</g>
		</g>
	</g>
	<circle class="st13" cx="468.45" cy="119.25" r="3.68"/>
	<circle class="st14" cx="468.45" cy="135.39" r="3.68"/>
	<g>
		<g>
			<line class="st10" x1="468.45" y1="122.93" x2="468.45" y2="129.31"/>
			<g>
				<rect x="465.85" y="128.91" class="st11" width="5.2" height="0.8"/>
			</g>
		</g>
	</g>
	<circle class="st14" cx="468.45" cy="151.22" r="3.68"/>
	<g>
		<g>
			<line class="st4" x1="468.45" y1="138.76" x2="468.45" y2="144.11"/>
			<g>
				<path class="st5" d="M466.95,144.03c0,0.83,0.67,1.5,1.5,1.5c0.83,0,1.5-0.67,1.5-1.5c0-0.83-0.67-1.5-1.5-1.5
					C467.62,142.53,466.95,143.2,466.95,144.03z"/>
			</g>
		</g>
	</g>
	<g>
		<g>
			<line class="st10" x1="468.45" y1="154.79" x2="468.45" y2="161.17"/>
			<g>
				<rect x="465.85" y="160.77" class="st11" width="5.2" height="0.8"/>
			</g>
		</g>
	</g>
	<circle class="st13" cx="505.76" cy="119.25" r="3.68"/>
	<circle class="st13" cx="506.22" cy="135.39" r="3.68"/>
	<g>
		<g>
			<line class="st4" x1="505.76" y1="122.93" x2="505.76" y2="128.28"/>
			<g>
				<path class="st5" d="M504.26,128.21c0,0.83,0.67,1.5,1.5,1.5c0.83,0,1.5-0.67,1.5-1.5c0-0.83-0.67-1.5-1.5-1.5
					C504.93,126.7,504.26,127.38,504.26,128.21z"/>
			</g>
		</g>
	</g>
	<g>
		<g>
			<line class="st10" x1="505.76" y1="139.08" x2="505.76" y2="160.71"/>
			<g>
				<rect x="503.16" y="160.31" class="st11" width="5.2" height="0.8"/>
			</g>
		</g>
	</g>
	<g>
		<circle class="st6" cx="415.11" cy="314.03" r="15"/>
		<g>
			<text transform="matrix(1.0482 0 0 1 409.517 318.7449)" class="st7 st8 st9">T</text>
		</g>
	</g>
	<g>
		<g>
			<line class="st4" x1="428.06" y1="241.3" x2="420.26" y2="246.96"/>
			<g>
				
					<ellipse transform="matrix(0.7557 -0.6549 0.6549 0.7557 -59.0206 335.6096)" class="st5" cx="420.33" cy="246.91" rx="1.5" ry="1.5"/>
			</g>
		</g>
	</g>
	<circle class="st14" cx="451.21" cy="253.14" r="3.68"/>
	<circle class="st13" cx="451.21" cy="269.06" r="3.68"/>
	<g>
		<g>
			<line class="st10" x1="451.21" y1="256.82" x2="451.21" y2="263.2"/>
			<g>
				<rect x="448.61" y="262.8" class="st11" width="5.2" height="0.8"/>
			</g>
		</g>
	</g>
	<circle class="st13" cx="451.21" cy="284.79" r="3.68"/>
	<g>
		<g>
			<line class="st4" x1="451.21" y1="272.64" x2="451.21" y2="277.99"/>
			<g>
				<path class="st5" d="M449.7,277.92c0,0.83,0.67,1.5,1.5,1.5s1.5-0.67,1.5-1.5c0-0.83-0.67-1.5-1.5-1.5
					S449.7,277.09,449.7,277.92z"/>
			</g>
		</g>
	</g>
	<g>
		<circle class="st12" cx="451.21" cy="314.03" r="15"/>
		<g>
			<text transform="matrix(1.0482 0 0 1 445.6156 318.7449)" class="st8 st9">T</text>
		</g>
	</g>
	<circle class="st14" cx="488.22" cy="253.14" r="3.68"/>
	<circle class="st14" cx="488.22" cy="269.06" r="3.68"/>
	<g>
		<g>
			<line class="st4" x1="488.22" y1="256.82" x2="488.22" y2="262.17"/>
			<g>
				<path class="st5" d="M486.71,262.1c0,0.83,0.67,1.5,1.5,1.5c0.83,0,1.5-0.67,1.5-1.5c0-0.83-0.67-1.5-1.5-1.5
					C487.38,260.59,486.71,261.27,486.71,262.1z"/>
			</g>
		</g>
	</g>
	<g>
		<g>
			<line class="st4" x1="488.22" y1="272.75" x2="488.22" y2="295.32"/>
			<g>
				<circle class="st5" cx="488.22" cy="295.25" r="1.5"/>
			</g>
		</g>
	</g>
	<g>
		<circle class="st6" cx="488.22" cy="314.03" r="15"/>
		<g>
			<text transform="matrix(1.0482 0 0 1 482.6234 318.7449)" class="st7 st8 st9">T</text>
		</g>
	</g>
	<g>
		<g>
			<line class="st4" x1="451.21" y1="288.47" x2="451.21" y2="295.32"/>
			<g>
				<circle class="st5" cx="451.21" cy="295.25" r="1.5"/>
			</g>
		</g>
	</g>
	<g>
		<g>
			<line class="st16" x1="438.01" y1="241.34" x2="447.27" y2="247.63"/>
			<g>
				<path class="st17" d="M446.36,248.83c0.69,0.47,1.62,0.29,2.09-0.4c0.47-0.69,0.29-1.62-0.4-2.09c-0.69-0.47-1.62-0.29-2.09,0.4
					C445.49,247.42,445.67,248.36,446.36,248.83z"/>
			</g>
		</g>
	</g>
	<g>
		<g>
			<line class="st10" x1="474.12" y1="241.61" x2="484.15" y2="248.45"/>
			<g>
				
					<rect x="481.55" y="248.05" transform="matrix(0.5636 -0.826 0.826 0.5636 6.0478 508.344)" class="st11" width="5.2" height="0.8"/>
			</g>
		</g>
	</g>
	<g>
		<g>
			<line class="st16" x1="464.04" y1="241.05" x2="454.78" y2="247.34"/>
			<g>
				<path class="st17" d="M454,246.06c-0.69,0.47-0.87,1.4-0.4,2.09c0.47,0.69,1.4,0.87,2.09,0.4c0.69-0.47,0.87-1.4,0.4-2.09
					C455.62,245.77,454.69,245.59,454,246.06z"/>
			</g>
		</g>
	</g>
	<g>
		<g>
			<line class="st4" x1="500.62" y1="241.59" x2="491.37" y2="247.88"/>
			<g>
				<path class="st5" d="M490.58,246.6c-0.69,0.47-0.87,1.4-0.4,2.09c0.47,0.69,1.4,0.87,2.09,0.4c0.69-0.47,0.87-1.4,0.4-2.09
					S491.27,246.13,490.58,246.6z"/>
			</g>
		</g>
	</g>
	<circle class="st13" cx="413.64" cy="252.66" r="3.68"/>
	<circle class="st14" cx="413.64" cy="268.59" r="3.68"/>
	<g>
		<g>
			<line class="st10" x1="413.35" y1="256.35" x2="413.35" y2="262.73"/>
			<g>
				<rect x="410.75" y="262.33" class="st11" width="5.2" height="0.8"/>
			</g>
		</g>
	</g>
	<g>
		<g>
			<line class="st10" x1="413.64" y1="272.17" x2="413.64" y2="294.78"/>
			<g>
				<rect x="411.04" y="294.38" class="st11" width="5.2" height="0.8"/>
			</g>
		</g>
	</g>
	<g>
		<g>
			<line class="st16" x1="399.84" y1="241.61" x2="409.87" y2="248.45"/>
			<g>
				
					<rect x="407.27" y="248.05" transform="matrix(0.5636 -0.826 0.826 0.5636 -26.3696 446.9803)" class="st17" width="5.2" height="0.8"/>
			</g>
		</g>
	</g>
	<circle class="st6" cx="506.94" cy="225.8" r="15"/>
	<g>
		<text transform="matrix(1.0482 0 0 1 500.3441 230.5183)" class="st7 st8 st9">O</text>
	</g>
	<circle class="st12" cx="397.51" cy="225.2" r="15"/>
	<circle class="st6" cx="433.83" cy="225.8" r="15"/>
	<text transform="matrix(1.0482 0 0 1 427.016 230.5183)" class="st7 st8 st9">K</text>
	<text transform="matrix(1.0482 0 0 1 390.7016 229.9226)" class="st8 st9">O</text>
	<circle class="st6" cx="470.38" cy="226.31" r="15"/>
	<g>
		<text transform="matrix(1.0482 0 0 1 463.7904 231.032)" class="st7 st8 st9">O</text>
	</g>
	<g>
		<g>
			<line class="st16" x1="397.51" y1="195.27" x2="397.51" y2="207.11"/>
			<g>
				<path class="st17" d="M396.01,207.04c0,0.83,0.67,1.5,1.5,1.5s1.5-0.67,1.5-1.5c0-0.83-0.67-1.5-1.5-1.5
					S396.01,206.21,396.01,207.04z"/>
			</g>
		</g>
	</g>
	<g>
		<g>
			<line class="st4" x1="507.11" y1="195.56" x2="507.11" y2="207.4"/>
			<g>
				<path class="st5" d="M505.6,207.33c0,0.83,0.67,1.5,1.5,1.5s1.5-0.67,1.5-1.5c0-0.83-0.67-1.5-1.5-1.5S505.6,206.5,505.6,207.33
					z"/>
			</g>
		</g>
	</g>
	<g>
		<g>
			<line class="st10" x1="468.45" y1="195.56" x2="468.45" y2="208.43"/>
			<g>
				<rect x="465.85" y="208.03" class="st11" width="5.2" height="0.8"/>
			</g>
		</g>
	</g>
	<g>
		<g>
			<line class="st4" x1="400.04" y1="196" x2="425.73" y2="208.22"/>
			<g>
				<path class="st5" d="M425.01,209.54c0.75,0.36,1.65,0.04,2-0.71s0.04-1.65-0.71-2s-1.65-0.04-2,0.71
					C423.94,208.29,424.26,209.18,425.01,209.54z"/>
			</g>
		</g>
	</g>
	<g>
		<g>
			<line class="st4" x1="503.22" y1="195.78" x2="477.53" y2="208"/>
			<g>
				<path class="st5" d="M476.95,206.61c-0.75,0.36-1.07,1.25-0.71,2c0.36,0.75,1.25,1.07,2,0.71c0.75-0.36,1.07-1.25,0.71-2
					S477.7,206.25,476.95,206.61z"/>
			</g>
		</g>
	</g>
	<text transform="matrix(1 0 0 1 534.0111 269.4216)"><tspan x="0" y="0" class="st18 st0 st19">Third</tspan><tspan x="0" y="22" class="st18 st0 st19">layer</tspan></text>
	<g>
		<g>
			<line class="st16" x1="432.98" y1="195.27" x2="432.98" y2="207.11"/>
			<g>
				<path class="st17" d="M431.48,207.04c0,0.83,0.67,1.5,1.5,1.5c0.83,0,1.5-0.67,1.5-1.5c0-0.83-0.67-1.5-1.5-1.5
					C432.15,205.53,431.48,206.21,431.48,207.04z"/>
			</g>
		</g>
	</g>
</g>
</svg>
