<svg id="Layer_1" data-name="Layer 1" xmlns="http://www.w3.org/2000/svg" viewBox="0 0 343.41 166.65"><defs><style>.cls-1,.cls-16,.cls-6,.cls-7{font-size:10px;font-family:ArialMT, Arial;}.cls-2{fill:#f2f2f2;opacity:0.7;}.cls-17,.cls-3,.cls-8{fill:none;}.cls-3{stroke:#39b54a;}.cls-10,.cls-12,.cls-15,.cls-17,.cls-3,.cls-5,.cls-8{stroke-miterlimit:10;}.cls-4{fill:#39b54a;}.cls-5{fill:#152ee7;}.cls-10,.cls-12,.cls-15,.cls-5{stroke:#000;}.cls-12,.cls-15,.cls-18,.cls-6,.cls-7{fill:#fff;}.cls-11,.cls-16,.cls-6{letter-spacing:-0.02em;}.cls-8{stroke:red;}.cls-9{fill:red;}.cls-10{fill:#f1012a;}.cls-12{stroke-width:0.3px;}.cls-13{letter-spacing:-0.06em;}.cls-14{fill:#999;opacity:0.5;}.cls-15{stroke-width:0.22px;}.cls-17{stroke:#fff;stroke-dasharray:1.2 1.2;}.cls-19{font-size:8px;fill:#33958c;font-family:Arial-BoldItalicMT, Arial;font-weight:700;font-style:italic;}.cls-20{fill:gray;opacity:0.6;}.cls-21{letter-spacing:-0.02em;}.cls-22{opacity:0.8;}</style></defs><title>networkcommons</title><text class="cls-1" transform="translate(26.63 8.58)">One-layer</text><rect class="cls-2" y="13.52" width="97.19" height="74.57" rx="6.61"/><line class="cls-3" x1="59.24" y1="52.85" x2="59.24" y2="55.49"/><path class="cls-4" d="M91.76,68.75a1.51,1.51,0,1,0,1.5-1.5A1.5,1.5,0,0,0,91.76,68.75Z" transform="translate(-34.02 -13.34)"/><circle class="cls-5" cx="81.78" cy="76.49" r="9"/><text class="cls-6" transform="translate(78.67 79.15) scale(1.05 1)">T</text><circle class="cls-5" cx="15.97" cy="76.49" r="9"/><text class="cls-7" transform="translate(12.47 79.15) scale(1.05 1)">K</text><line class="cls-3" x1="39.83" y1="32.77" x2="20.5" y2="38.2"/><path class="cls-4" d="M54.19,50.07a1.5,1.5,0,1,0,1.86,1A1.5,1.5,0,0,0,54.19,50.07Z" transform="translate(-34.02 -13.34)"/><line class="cls-3" x1="55.6" y1="33.03" x2="75.97" y2="38.54"/><path class="cls-4" d="M109.53,53.31a1.5,1.5,0,1,0-1.06-1.84A1.49,1.49,0,0,0,109.53,53.31Z" transform="translate(-34.02 -13.34)"/><line class="cls-3" x1="43.53" y1="34.94" x2="38.54" y2="38.08"/><path class="cls-4" d="M71.82,50.11a1.5,1.5,0,1,0,2.08.47A1.5,1.5,0,0,0,71.82,50.11Z" transform="translate(-34.02 -13.34)"/><line class="cls-3" x1="50.82" y1="34.77" x2="56.01" y2="38.37"/><path class="cls-4" d="M89.11,52.9a1.49,1.49,0,0,0,2.09-.37,1.5,1.5,0,1,0-2.09.37Z" transform="translate(-34.02 -13.34)"/><line class="cls-8" x1="16.49" y1="52.73" x2="16.49" y2="66.14"/><rect class="cls-9" x="13.89" y="65.74" width="5.2" height="0.8"/><line class="cls-3" x1="62.38" y1="42.73" x2="77.38" y2="48.8"/><path class="cls-4" d="M110.77,63.5a1.51,1.51,0,1,0-.83-2A1.51,1.51,0,0,0,110.77,63.5Z" transform="translate(-34.02 -13.34)"/><circle class="cls-10" cx="59.84" cy="76.49" r="9"/><text class="cls-1" transform="translate(52.94 79.15) scale(1.05 1)">P<tspan class="cls-11" x="6.67" y="0">P</tspan></text><circle class="cls-10" cx="37.9" cy="76.49" r="9"/><text class="cls-1" transform="translate(33.83 79.15) scale(1.05 1)">O</text><circle class="cls-12" cx="36.47" cy="41.58" r="2.21"/><line class="cls-3" x1="36" y1="44.79" x2="36" y2="65.11"/><path class="cls-4" d="M68.52,78.37a1.51,1.51,0,1,0,1.5-1.5A1.51,1.51,0,0,0,68.52,78.37Z" transform="translate(-34.02 -13.34)"/><polygon class="cls-10" points="36.39 15.3 47.23 22.53 58.06 15.3 47.23 36.98 36.39 15.3"/><circle class="cls-12" cx="16.52" cy="40.96" r="2.21"/><circle class="cls-12" cx="16.52" cy="50.64" r="2.21"/><line class="cls-3" x1="16.52" y1="43.17" x2="16.52" y2="45.81"/><path class="cls-4" d="M49,59.07a1.5,1.5,0,1,0,1.5-1.51A1.5,1.5,0,0,0,49,59.07Z" transform="translate(-34.02 -13.34)"/><circle class="cls-12" cx="59.24" cy="41.14" r="2.21"/><circle class="cls-12" cx="59.24" cy="50.83" r="2.21"/><line class="cls-8" x1="59.24" y1="43.35" x2="59.24" y2="47.02"/><rect class="cls-9" x="56.64" y="46.62" width="5.2" height="0.8"/><circle class="cls-12" cx="59.24" cy="60.33" r="2.21"/><line class="cls-8" x1="59.24" y1="62.47" x2="59.24" y2="66.14"/><rect class="cls-9" x="56.64" y="65.74" width="5.2" height="0.8"/><circle class="cls-12" cx="81.63" cy="41.14" r="2.21"/><circle class="cls-12" cx="81.9" cy="50.83" r="2.21"/><line class="cls-3" x1="81.63" y1="43.35" x2="81.63" y2="45.99"/><path class="cls-4" d="M114.15,59.25a1.5,1.5,0,1,0,1.5-1.5A1.51,1.51,0,0,0,114.15,59.25Z" transform="translate(-34.02 -13.34)"/><line class="cls-8" x1="81.63" y1="53.04" x2="81.63" y2="65.86"/><rect class="cls-9" x="79.03" y="65.46" width="5.2" height="0.8"/><text class="cls-1" transform="translate(132.35 8.58)"><tspan class="cls-13">T</tspan><tspan x="5.56" y="0">wo-layers</tspan></text><rect class="cls-2" x="107.98" y="11.66" width="97" height="75" rx="6.61"/><rect class="cls-14" x="108.5" y="62" width="96.62" height="76.34" rx="6.61"/><circle class="cls-5" cx="189.45" cy="75.03" r="9"/><text class="cls-7" transform="translate(185.37 77.7) scale(1.05 1)">O</text><circle class="cls-5" cx="123.65" cy="75.03" r="9"/><text class="cls-7" transform="translate(120.16 77.7) scale(1.05 1)">K</text><line class="cls-3" x1="147.31" y1="31.34" x2="127.99" y2="36.76"/><path class="cls-4" d="M161.68,48.63a1.51,1.51,0,1,0,.81,2.9,1.51,1.51,0,0,0-.81-2.9Z" transform="translate(-34.02 -13.34)"/><line class="cls-3" x1="163.09" y1="31.6" x2="183.46" y2="37.11"/><path class="cls-4" d="M217,51.88A1.5,1.5,0,1,0,216,50,1.49,1.49,0,0,0,217,51.88Z" transform="translate(-34.02 -13.34)"/><line class="cls-3" x1="151.02" y1="33.51" x2="146.02" y2="36.65"/><path class="cls-4" d="M179.31,48.67a1.51,1.51,0,1,0,2.07.48A1.51,1.51,0,0,0,179.31,48.67Z" transform="translate(-34.02 -13.34)"/><line class="cls-3" x1="158.3" y1="33.33" x2="163.49" y2="36.94"/><path class="cls-4" d="M196.59,51.47a1.5,1.5,0,1,0-.37-2.09A1.51,1.51,0,0,0,196.59,51.47Z" transform="translate(-34.02 -13.34)"/><line class="cls-8" x1="123.97" y1="51.3" x2="123.97" y2="64.71"/><rect class="cls-9" x="121.37" y="64.31" width="5.2" height="0.8"/><line class="cls-3" x1="169.87" y1="41.29" x2="184.87" y2="47.36"/><path class="cls-4" d="M218.26,62.07a1.51,1.51,0,1,0-.83-2A1.51,1.51,0,0,0,218.26,62.07Z" transform="translate(-34.02 -13.34)"/><circle class="cls-10" cx="167.18" cy="75.03" r="9"/><text class="cls-1" transform="translate(160.08 77.87) scale(1.05 1)">P<tspan class="cls-11" x="6.67" y="0">P</tspan></text><circle class="cls-10" cx="145.51" cy="75.03" r="9"/><text class="cls-1" transform="translate(141.44 77.7) scale(1.05 1)">O</text><circle class="cls-12" cx="145.52" cy="40.15" r="2.21"/><line class="cls-3" x1="145.52" y1="43.35" x2="145.52" y2="63.68"/><circle class="cls-4" cx="145.52" cy="63.6" r="1.5"/><polygon class="cls-10" points="143.88 13.87 154.72 21.1 165.55 13.87 154.72 35.55 143.88 13.87"/><circle class="cls-12" cx="124" cy="39.52" r="2.21"/><circle class="cls-15" cx="124" cy="49.21" r="2.21"/><line class="cls-3" x1="124" y1="41.73" x2="124" y2="44.37"/><path class="cls-4" d="M156.52,57.64a1.51,1.51,0,0,0,3,0,1.51,1.51,0,1,0-3,0Z" transform="translate(-34.02 -13.34)"/><circle class="cls-12" cx="166.73" cy="39.71" r="2.21"/><circle class="cls-12" cx="166.73" cy="49.4" r="2.21"/><line class="cls-8" x1="166.73" y1="41.92" x2="166.73" y2="45.59"/><rect class="cls-9" x="164.13" y="45.19" width="5.2" height="0.8"/><circle class="cls-12" cx="166.73" cy="58.89" r="2.21"/><line class="cls-3" x1="166.73" y1="51.42" x2="166.73" y2="54.06"/><circle class="cls-4" cx="166.73" cy="53.98" r="1.5"/><line class="cls-8" x1="166.73" y1="61.04" x2="166.73" y2="64.71"/><rect class="cls-9" x="164.13" y="64.31" width="5.2" height="0.8"/><circle class="cls-12" cx="189.11" cy="39.71" r="2.21"/><circle class="cls-15" cx="189.38" cy="49.4" r="2.21"/><line class="cls-3" x1="189.11" y1="41.92" x2="189.11" y2="44.56"/><path class="cls-4" d="M221.63,57.82a1.51,1.51,0,1,0,1.51-1.5A1.51,1.51,0,0,0,221.63,57.82Z" transform="translate(-34.02 -13.34)"/><line class="cls-8" x1="189.11" y1="51.61" x2="189.11" y2="64.43"/><rect class="cls-9" x="186.51" y="64.03" width="5.2" height="0.8"/><circle class="cls-5" cx="134.6" cy="127.86" r="9"/><text class="cls-6" transform="translate(131.49 130.53) scale(1.05 1)">T</text><line class="cls-3" x1="142.49" y1="84.14" x2="138.28" y2="87.2"/><path class="cls-4" d="M171.48,99.28a1.5,1.5,0,1,0,1.76,2.43,1.5,1.5,0,1,0-1.76-2.43Z" transform="translate(-34.02 -13.34)"/><circle class="cls-12" cx="156.38" cy="91.24" r="2.21"/><circle class="cls-12" cx="156.38" cy="100.8" r="2.21"/><line class="cls-8" x1="156.38" y1="93.45" x2="156.38" y2="97.12"/><rect class="cls-9" x="153.78" y="96.72" width="5.2" height="0.8"/><circle class="cls-12" cx="156.38" cy="110.23" r="2.21"/><line class="cls-3" x1="156.38" y1="102.95" x2="156.38" y2="105.59"/><path class="cls-4" d="M188.9,118.85a1.51,1.51,0,1,0,1.5-1.5A1.5,1.5,0,0,0,188.9,118.85Z" transform="translate(-34.02 -13.34)"/><circle class="cls-10" cx="156.26" cy="127.86" r="9"/><text class="cls-16" transform="translate(153.15 130.53) scale(1.05 1)">T</text><circle class="cls-12" cx="178.58" cy="91.24" r="2.21"/><circle class="cls-12" cx="178.58" cy="100.8" r="2.21"/><line class="cls-3" x1="178.58" y1="93.45" x2="178.58" y2="96.09"/><path class="cls-4" d="M211.1,109.36a1.51,1.51,0,1,0,1.51-1.51A1.51,1.51,0,0,0,211.1,109.36Z" transform="translate(-34.02 -13.34)"/><line class="cls-3" x1="178.58" y1="103.01" x2="178.58" y2="115.98"/><path class="cls-4" d="M211.1,129.25a1.51,1.51,0,1,0,1.51-1.51A1.51,1.51,0,0,0,211.1,129.25Z" transform="translate(-34.02 -13.34)"/><circle class="cls-5" cx="178.46" cy="127.86" r="9"/><text class="cls-6" transform="translate(175.35 130.53) scale(1.05 1)">T</text><line class="cls-3" x1="156.38" y1="112.44" x2="156.38" y2="115.98"/><path class="cls-4" d="M188.9,129.25a1.51,1.51,0,0,0,3,0,1.51,1.51,0,1,0-3,0Z" transform="translate(-34.02 -13.34)"/><line class="cls-17" x1="148.46" y1="84.16" x2="153.54" y2="87.62"/><path class="cls-18" d="M186.66,102.16a1.5,1.5,0,0,0,1.69-2.49,1.5,1.5,0,1,0-1.69,2.49Z" transform="translate(-34.02 -13.34)"/><line class="cls-8" x1="170.13" y1="84.32" x2="176.01" y2="88.34"/><rect class="cls-9" x="207.44" y="101.28" width="5.2" height="0.8" transform="translate(-26.36 204.53) rotate(-55.69)"/><line class="cls-17" x1="164.08" y1="83.99" x2="159" y2="87.45"/><path class="cls-18" d="M192.24,99.5a1.5,1.5,0,0,0-.4,2.09,1.5,1.5,0,1,0,2.48-1.69A1.49,1.49,0,0,0,192.24,99.5Z" transform="translate(-34.02 -13.34)"/><line class="cls-3" x1="186.03" y1="84.32" x2="180.95" y2="87.77"/><path class="cls-4" d="M214.19,99.82a1.5,1.5,0,0,0,1.69,2.49,1.5,1.5,0,1,0-1.69-2.49Z" transform="translate(-34.02 -13.34)"/><circle class="cls-12" cx="133.84" cy="90.96" r="2.21"/><circle class="cls-12" cx="133.84" cy="100.52" r="2.21"/><line class="cls-8" x1="133.66" y1="93.17" x2="133.66" y2="96.84"/><rect class="cls-9" x="131.06" y="96.44" width="5.2" height="0.8"/><line class="cls-8" x1="133.84" y1="102.66" x2="133.84" y2="116.07"/><rect class="cls-9" x="131.24" y="115.67" width="5.2" height="0.8"/><line class="cls-17" x1="125.56" y1="84.32" x2="131.44" y2="88.34"/><rect class="cls-18" x="162.86" y="101.28" width="5.2" height="0.8" transform="translate(-45.81 167.71) rotate(-55.69)"/><text class="cls-19" transform="translate(314 38.38)">First<tspan x="0" y="13.2">layer</tspan></text><text class="cls-19" transform="translate(314 83.57)">Second<tspan x="0" y="13.2">layer</tspan></text><text class="cls-1" transform="translate(236.39 8.58)">Three-layers</text><rect class="cls-20" x="216.33" y="89.96" width="96.72" height="76.69" rx="6.61"/><rect class="cls-2" x="215.87" y="11.06" width="97.19" height="74.57" rx="6.61"/><rect class="cls-14" x="216.43" y="61.66" width="96.62" height="52" rx="6.61"/><circle class="cls-5" cx="297.29" cy="74" r="9"/><text class="cls-7" transform="translate(293.79 76.67) scale(1.05 1)">K</text><circle class="cls-5" cx="232.08" cy="74" r="9"/><text class="cls-7" transform="translate(228.59 76.67) scale(1.05 1)">K</text><line class="cls-3" x1="255.25" y1="30.28" x2="235.92" y2="35.71"/><path class="cls-4" d="M269.61,47.58a1.5,1.5,0,1,0,1.85,1A1.49,1.49,0,0,0,269.61,47.58Z" transform="translate(-34.02 -13.34)"/><line class="cls-3" x1="271.02" y1="30.54" x2="291.39" y2="36.06"/><circle class="cls-4" cx="325.34" cy="49.37" r="1.5" transform="translate(116.17 314.62) rotate(-66.47)"/><line class="cls-3" x1="258.95" y1="32.45" x2="253.95" y2="35.59"/><path class="cls-4" d="M287.24,47.62a1.5,1.5,0,0,0-.47,2.07,1.5,1.5,0,1,0,2.54-1.6A1.5,1.5,0,0,0,287.24,47.62Z" transform="translate(-34.02 -13.34)"/><line class="cls-3" x1="266.24" y1="32.28" x2="271.42" y2="35.89"/><path class="cls-4" d="M304.52,50.42A1.5,1.5,0,1,0,306.24,48a1.5,1.5,0,0,0-1.72,2.47Z" transform="translate(-34.02 -13.34)"/><line class="cls-8" x1="231.91" y1="50.24" x2="231.91" y2="63.65"/><rect class="cls-9" x="229.31" y="63.25" width="5.2" height="0.8"/><line class="cls-3" x1="277.8" y1="40.24" x2="292.8" y2="46.31"/><path class="cls-4" d="M326.19,61a1.51,1.51,0,1,0-.83-2A1.51,1.51,0,0,0,326.19,61Z" transform="translate(-34.02 -13.34)"/><circle class="cls-10" cx="275.01" cy="74" r="9"/><text class="cls-1" transform="translate(268.12 76.67) scale(1.05 1)">P<tspan class="cls-21" x="6.67" y="0">P</tspan></text><circle class="cls-10" cx="253.66" cy="74" r="9"/><text class="cls-1" transform="translate(250.16 76.67) scale(1.05 1)">K</text><circle class="cls-12" cx="253.45" cy="39.1" r="2.21"/><line class="cls-3" x1="253.45" y1="42.3" x2="253.45" y2="62.62"/><path class="cls-4" d="M286,75.88a1.51,1.51,0,1,0,1.5-1.5A1.5,1.5,0,0,0,286,75.88Z" transform="translate(-34.02 -13.34)"/><polygon class="cls-10" points="251.81 12.82 262.65 20.04 273.48 12.82 262.65 34.49 251.81 12.82"/><circle class="cls-12" cx="231.93" cy="38.47" r="2.21"/><circle class="cls-12" cx="231.93" cy="48.16" r="2.21"/><line class="cls-3" x1="231.93" y1="40.68" x2="231.93" y2="43.32"/><path class="cls-4" d="M264.45,56.58a1.51,1.51,0,1,0,1.51-1.5A1.51,1.51,0,0,0,264.45,56.58Z" transform="translate(-34.02 -13.34)"/><circle class="cls-12" cx="274.66" cy="38.65" r="2.21"/><circle class="cls-12" cx="274.66" cy="48.34" r="2.21"/><line class="cls-8" x1="274.66" y1="40.86" x2="274.66" y2="44.53"/><rect class="cls-9" x="272.06" y="44.13" width="5.2" height="0.8"/><circle class="cls-12" cx="274.66" cy="57.84" r="2.21"/><line class="cls-3" x1="274.66" y1="50.36" x2="274.66" y2="53"/><path class="cls-4" d="M307.18,66.26a1.5,1.5,0,1,0,1.5-1.5A1.51,1.51,0,0,0,307.18,66.26Z" transform="translate(-34.02 -13.34)"/><line class="cls-8" x1="274.66" y1="59.98" x2="274.66" y2="63.65"/><rect class="cls-9" x="272.06" y="63.25" width="5.2" height="0.8"/><circle class="cls-12" cx="297.05" cy="38.65" r="2.21"/><circle class="cls-12" cx="297.32" cy="48.34" r="2.21"/><line class="cls-3" x1="297.05" y1="40.86" x2="297.05" y2="43.5"/><path class="cls-4" d="M329.56,56.77a1.51,1.51,0,1,0,1.51-1.51A1.51,1.51,0,0,0,329.56,56.77Z" transform="translate(-34.02 -13.34)"/><line class="cls-8" x1="297.05" y1="50.55" x2="297.05" y2="63.37"/><rect class="cls-9" x="294.45" y="62.97" width="5.2" height="0.8"/><circle class="cls-5" cx="242.53" cy="155.6" r="9"/><text class="cls-6" transform="translate(239.42 158.27) scale(1.05 1)">T</text><line class="cls-3" x1="250.42" y1="111.89" x2="246.21" y2="114.94"/><path class="cls-4" d="M279.41,127a1.51,1.51,0,1,0,2.1.34A1.5,1.5,0,0,0,279.41,127Z" transform="translate(-34.02 -13.34)"/><circle class="cls-12" cx="264.31" cy="118.99" r="2.21"/><circle class="cls-12" cx="264.31" cy="128.54" r="2.21"/><line class="cls-8" x1="264.31" y1="121.2" x2="264.31" y2="124.87"/><rect class="cls-9" x="261.71" y="124.47" width="5.2" height="0.8"/><circle class="cls-12" cx="264.31" cy="137.98" r="2.21"/><line class="cls-3" x1="264.31" y1="130.69" x2="264.31" y2="133.33"/><path class="cls-4" d="M296.83,146.59a1.51,1.51,0,1,0,1.5-1.5A1.51,1.51,0,0,0,296.83,146.59Z" transform="translate(-34.02 -13.34)"/><circle class="cls-10" cx="264.19" cy="155.6" r="9"/><text class="cls-16" transform="translate(261.08 158.27) scale(1.05 1)">T</text><circle class="cls-12" cx="286.52" cy="118.99" r="2.21"/><circle class="cls-12" cx="286.52" cy="128.54" r="2.21"/><line class="cls-3" x1="286.52" y1="121.2" x2="286.52" y2="123.84"/><path class="cls-4" d="M319,137.1a1.51,1.51,0,1,0,1.51-1.5A1.51,1.51,0,0,0,319,137.1Z" transform="translate(-34.02 -13.34)"/><line class="cls-3" x1="286.52" y1="130.75" x2="286.52" y2="143.73"/><path class="cls-4" d="M319,157a1.51,1.51,0,1,0,3,0,1.51,1.51,0,0,0-3,0Z" transform="translate(-34.02 -13.34)"/><circle class="cls-5" cx="286.39" cy="155.6" r="9"/><text class="cls-6" transform="translate(283.29 158.27) scale(1.05 1)">T</text><line class="cls-3" x1="264.31" y1="140.19" x2="264.31" y2="143.73"/><path class="cls-4" d="M296.83,157a1.51,1.51,0,1,0,1.5-1.5A1.51,1.51,0,0,0,296.83,157Z" transform="translate(-34.02 -13.34)"/><line class="cls-17" x1="256.39" y1="111.91" x2="261.48" y2="115.36"/><path class="cls-18" d="M294.59,129.9a1.5,1.5,0,1,0-.4-2.09A1.5,1.5,0,0,0,294.59,129.9Z" transform="translate(-34.02 -13.34)"/><line class="cls-8" x1="278.06" y1="112.07" x2="283.95" y2="116.08"/><rect class="cls-9" x="315.37" y="129.02" width="5.2" height="0.8" transform="translate(-2.17 305.79) rotate(-55.69)"/><line class="cls-17" x1="272.01" y1="111.74" x2="266.93" y2="115.19"/><path class="cls-18" d="M300.17,127.24a1.5,1.5,0,1,0,2.09.4A1.5,1.5,0,0,0,300.17,127.24Z" transform="translate(-34.02 -13.34)"/><line class="cls-3" x1="293.96" y1="112.06" x2="288.88" y2="115.51"/><path class="cls-4" d="M322.12,127.57a1.5,1.5,0,1,0,2.09.4A1.5,1.5,0,0,0,322.12,127.57Z" transform="translate(-34.02 -13.34)"/><circle class="cls-12" cx="241.77" cy="118.7" r="2.21"/><circle class="cls-12" cx="241.77" cy="128.26" r="2.21"/><line class="cls-8" x1="241.6" y1="120.91" x2="241.6" y2="124.58"/><rect class="cls-9" x="239" y="124.18" width="5.2" height="0.8"/><line class="cls-8" x1="241.77" y1="130.41" x2="241.77" y2="143.81"/><rect class="cls-9" x="239.17" y="143.41" width="5.2" height="0.8"/><line class="cls-17" x1="233.49" y1="112.07" x2="239.37" y2="116.08"/><rect class="cls-18" x="270.8" y="129.02" width="5.2" height="0.8" transform="translate(-21.63 268.97) rotate(-55.69)"/><circle class="cls-5" cx="297.81" cy="102.79" r="9"/><text class="cls-7" transform="translate(293.73 105.46) scale(1.05 1)">O</text><circle class="cls-5" cx="253.59" cy="102.79" r="9"/><text class="cls-7" transform="translate(250.09 105.46) scale(1.05 1)">K</text><circle class="cls-10" cx="232.09" cy="102.79" r="9"/><text class="cls-1" transform="translate(228.01 105.46) scale(1.05 1)">O</text><circle class="cls-5" cx="275.88" cy="102.79" r="9"/><text class="cls-7" transform="translate(271.8 105.46) scale(1.05 1)">O</text><g class="cls-22"><line class="cls-17" x1="232.1" y1="84.27" x2="232.1" y2="90.8"/><path class="cls-18" d="M264.61,104.07a1.51,1.51,0,1,0,1.51-1.51A1.51,1.51,0,0,0,264.61,104.07Z" transform="translate(-34.02 -13.34)"/></g><line class="cls-3" x1="297.85" y1="84.44" x2="297.85" y2="90.97"/><path class="cls-4" d="M330.37,104.24a1.51,1.51,0,1,0,1.5-1.51A1.5,1.5,0,0,0,330.37,104.24Z" transform="translate(-34.02 -13.34)"/><line class="cls-8" x1="274.66" y1="84.44" x2="274.66" y2="92"/><rect class="cls-9" x="272.06" y="91.6" width="5.2" height="0.8"/><line class="cls-3" x1="233.61" y1="84.7" x2="248.51" y2="91.79"/><path class="cls-4" d="M281.81,106.45a1.5,1.5,0,1,0-.71-2A1.51,1.51,0,0,0,281.81,106.45Z" transform="translate(-34.02 -13.34)"/><line class="cls-3" x1="295.52" y1="84.57" x2="280.62" y2="91.66"/><path class="cls-4" d="M314.07,103.61a1.5,1.5,0,1,0,2,.71A1.51,1.51,0,0,0,314.07,103.61Z" transform="translate(-34.02 -13.34)"/><text class="cls-19" transform="translate(313.99 128.76)">Third<tspan x="0" y="13.2">layer</tspan></text><g class="cls-22"><line class="cls-17" x1="253.38" y1="84.27" x2="253.38" y2="90.8"/><path class="cls-18" d="M285.9,104.07a1.5,1.5,0,1,0,1.5-1.51A1.5,1.5,0,0,0,285.9,104.07Z" transform="translate(-34.02 -13.34)"/></g></svg>